<svg xmlns="http://www.w3.org/2000/svg" width="1600" height="900" viewBox="0 0 1600 900" role="img" aria-label="Store staff reviewing a mobile approval workflow">
  <defs>
    <linearGradient id="bg" x1="0" y1="0" x2="1" y2="1">
      <stop offset="0" stop-color="#0f172a"/>
      <stop offset="0.58" stop-color="#155e75"/>
      <stop offset="1" stop-color="#22c55e"/>
    </linearGradient>
    <linearGradient id="phone" x1="0" y1="0" x2="0" y2="1">
      <stop offset="0" stop-color="#f8fafc"/>
      <stop offset="1" stop-color="#dbeafe"/>
    </linearGradient>
  </defs>
  <rect width="1600" height="900" fill="url(#bg)"/>
  <rect x="0" y="620" width="1600" height="280" fill="#0b1220" opacity="0.42"/>
  <rect x="88" y="118" width="520" height="660" rx="34" fill="#f8fafc" opacity="0.16"/>
  <rect x="152" y="184" width="392" height="520" rx="28" fill="url(#phone)"/>
  <rect x="206" y="244" width="284" height="42" rx="21" fill="#1d4ed8" opacity="0.88"/>
  <rect x="206" y="332" width="284" height="30" rx="15" fill="#94a3b8" opacity="0.48"/>
  <rect x="206" y="390" width="214" height="30" rx="15" fill="#94a3b8" opacity="0.36"/>
  <rect x="206" y="502" width="132" height="58" rx="18" fill="#16a34a"/>
  <rect x="358" y="502" width="132" height="58" rx="18" fill="#2563eb"/>
  <circle cx="980" cy="392" r="132" fill="#fde68a"/>
  <rect x="832" y="514" width="306" height="266" rx="86" fill="#e0f2fe"/>
  <rect x="1124" y="288" width="288" height="420" rx="34" fill="#ffffff" opacity="0.26"/>
  <rect x="1194" y="362" width="148" height="28" rx="14" fill="#ffffff" opacity="0.66"/>
  <rect x="1194" y="424" width="186" height="22" rx="11" fill="#ffffff" opacity="0.44"/>
  <rect x="1194" y="474" width="156" height="22" rx="11" fill="#ffffff" opacity="0.44"/>
  <path d="M1102 552 C1230 520 1332 560 1418 666" fill="none" stroke="#bfdbfe" stroke-width="36" stroke-linecap="round"/>
  <path d="M720 566 C616 520 500 520 408 604" fill="none" stroke="#dcfce7" stroke-width="34" stroke-linecap="round"/>
  <text x="870" y="182" fill="#eff6ff" font-family="Arial, sans-serif" font-size="42" font-weight="700">Mobile field decision</text>
  <text x="870" y="238" fill="#dbeafe" font-family="Arial, sans-serif" font-size="28">Approval, inventory and frontline context stay connected.</text>
</svg>
